<svg width="21" height="19" viewBox="0 0 21 19" fill="none" xmlns="http://www.w3.org/2000/svg">
<path fill-rule="evenodd" clip-rule="evenodd" d="M20.9823 10.9683L19.8574 1.96868C19.7156 0.843426 18.7585 -0.000389323 17.6243 0H1.49994C0.671548 0 0 0.671547 0 1.49994V9.74963C0 10.578 0.671548 11.2496 1.49994 11.2496H5.53667L9.07841 18.3349C9.20558 18.5891 9.46546 18.7495 9.74963 18.7493C11.8206 18.7493 13.4995 17.0704 13.4995 14.9994V13.4995H18.7493C19.3952 13.4997 20.01 13.2224 20.4372 12.738C20.8645 12.2537 21.0631 11.6091 20.9823 10.9683ZM5.2498 9.74963H1.49994V1.49994H5.2498V9.74963ZM19.3118 11.7455C19.1703 11.9082 18.9649 12.001 18.7493 11.9995H12.7495C12.3353 11.9995 11.9995 12.3353 11.9995 12.7495V14.9994C11.9998 16.072 11.2429 16.9957 10.1912 17.2062L6.74974 10.3224V1.49994H17.6243C18.0024 1.49981 18.3214 1.78109 18.3687 2.15617L19.4936 11.1558C19.5221 11.3695 19.4556 11.5849 19.3118 11.7455Z" fill="#9CABBA"/>
</svg>
