<svg width="21" height="19" viewBox="0 0 21 19" fill="none" xmlns="http://www.w3.org/2000/svg">
<path fill-rule="evenodd" clip-rule="evenodd" d="M20.4368 6.01104C20.0096 5.52693 19.395 5.24968 18.7493 5.24981H13.4995V3.74987C13.4995 1.67887 11.8206 0 9.74965 0C9.46548 -0.000203483 9.2056 0.160226 9.07843 0.41436L5.53668 7.49973H1.49995C0.671549 7.49973 0 8.17128 0 8.99968V17.2494C0 18.0778 0.671549 18.7493 1.49995 18.7493H17.6244C18.7585 18.7497 19.7157 17.9059 19.8574 16.7807L20.9824 7.78097C21.063 7.14002 20.8643 6.49533 20.4368 6.01104ZM1.49995 8.99968H5.24981V17.2494H1.49995V8.99968ZM19.4937 7.59348L18.3687 16.5932C18.3215 16.9682 18.0024 17.2495 17.6244 17.2494H6.74976V8.42689L10.1912 1.54307C11.243 1.75357 11.9999 2.67725 11.9996 3.74987V5.99979C11.9996 6.41399 12.3353 6.74976 12.7495 6.74976H18.7493C18.9646 6.74969 19.1696 6.84213 19.312 7.00358C19.4544 7.16502 19.5206 7.37988 19.4937 7.59348Z" fill="#9CABBA"/>
</svg>
